<svg width="451" height="253" viewBox="0 0 451 253" fill="none" xmlns="http://www.w3.org/2000/svg">
<path d="M25.634 173.867C19.184 173.971 13.689 176.618 9.67401 182.429H9.46101V154.837H0.156006V230.74H8.93001V223.867H9.14001C11.043 226.932 14.954 232.323 24.363 232.323C43.178 232.323 48.677 214.67 48.677 201.46C48.677 185.919 40.326 173.867 25.634 173.867ZM24.153 224.292C18.234 224.292 9.03501 220.378 9.03501 205.684C9.03501 196.699 10.513 182.216 23.939 182.216C38.314 182.216 39.057 195.857 39.057 202.937C39.058 215.09 34.299 224.292 24.153 224.292Z" fill="white"/>
<path d="M97.409 221.117V189.3C97.409 175.139 81.341 173.866 76.903 173.866C63.266 173.866 54.493 179.046 54.07 192.261H62.633C63.266 188.03 64.747 181.587 75.319 181.587C84.092 181.587 88.32 184.751 88.32 190.568C88.32 196.065 85.678 196.914 83.457 197.128L68.127 199.024C52.694 200.924 51.321 211.71 51.321 216.363C51.321 225.873 58.509 232.321 68.655 232.321C79.438 232.321 85.041 227.248 88.634 223.339C88.951 227.566 90.219 231.792 98.466 231.792C100.579 231.792 101.953 231.16 103.541 230.738V223.972C102.48 224.187 101.319 224.392 100.474 224.392C98.574 224.392 97.409 223.446 97.409 221.117ZM88.105 211.604C88.105 219.004 79.649 224.604 70.981 224.604C64.003 224.604 60.936 221.011 60.936 214.987C60.936 208.009 68.231 206.636 72.777 205.998C84.3 204.519 86.623 203.676 88.102 202.511V211.605H88.105V211.604Z" fill="white"/>
<path d="M133.562 173.867C124.048 173.867 118.867 180.315 116.861 183.271H116.648V175.452H107.875V230.738H117.176V200.61C117.176 185.598 126.48 182.219 131.766 182.219C140.857 182.219 143.606 187.082 143.606 196.699V230.737H152.907V193.104C152.907 177.356 142.124 173.867 133.562 173.867Z" fill="white"/>
<path d="M197.94 183.271H197.73C195.511 180.108 191.28 173.867 181.239 173.867C166.547 173.867 158.196 185.92 158.196 201.459C158.196 214.668 163.692 232.321 182.508 232.321C187.904 232.321 194.245 230.633 198.258 223.124H198.474V230.738H207.243V154.836H197.944V183.272H197.94V183.271ZM182.717 224.292C172.567 224.292 167.812 215.091 167.812 202.937C167.812 195.857 168.552 182.216 182.929 182.216C196.353 182.216 197.83 196.698 197.83 205.684C197.833 220.377 188.637 224.292 182.717 224.292Z" fill="white"/>
<path d="M240.539 182.219C248.363 182.219 252.487 186.657 253.645 194.056H262.633C261.891 184.439 256.392 173.862 241.911 173.862C223.626 173.862 215.38 187.503 215.38 204.625C215.38 220.588 224.576 232.319 240.113 232.319C256.291 232.319 261.68 219.951 262.633 211.178H253.645C252.06 219.633 246.669 224.287 240.433 224.287C227.643 224.287 225.317 212.551 225.317 203.036C225.317 193.209 229.018 182.219 240.539 182.219Z" fill="white"/>
<path d="M309.674 221.117V189.3C309.674 175.139 293.609 173.866 289.167 173.866C275.53 173.866 266.758 179.046 266.333 192.261H274.896C275.53 188.03 277.012 181.587 287.584 181.587C296.356 181.587 300.586 184.751 300.586 190.568C300.586 196.065 297.94 196.914 295.723 197.128L280.394 199.024C264.96 200.924 263.587 211.71 263.587 216.363C263.587 225.873 270.77 232.321 280.923 232.321C291.703 232.321 297.308 227.248 300.902 223.339C301.217 227.566 302.483 231.792 310.734 231.792C312.843 231.792 314.221 231.16 315.807 230.738V223.972C314.748 224.187 313.587 224.392 312.744 224.392C310.839 224.392 309.674 223.446 309.674 221.117ZM300.371 211.604C300.371 219.004 291.913 224.604 283.25 224.604C276.265 224.604 273.204 221.011 273.204 214.987C273.204 208.009 280.496 206.636 285.043 205.998C296.566 204.519 298.891 203.676 300.371 202.511V211.604Z" fill="white"/>
<path d="M377.433 173.867C368.87 173.867 365.167 177.672 360.524 182.854C358.934 179.893 355.765 173.867 345.829 173.867C335.893 173.867 331.135 180.315 329.127 183.271H328.913V175.452H320.144V230.738H329.444V200.61C329.444 185.598 338.744 182.219 344.029 182.219C350.897 182.219 352.697 187.82 352.697 192.471V230.741H362.002V197.019C362.002 189.615 367.183 182.219 375.004 182.219C382.929 182.219 385.256 187.398 385.256 195.009V230.74H394.556V192.47C394.557 176.93 383.354 173.867 377.433 173.867Z" fill="white"/>
<path d="M427.642 173.867C417.605 173.867 413.38 180.108 411.154 183.271H410.94V175.452H402.167V252.618H411.472V224.924H411.684C414.119 228.834 418.979 232.321 426.376 232.321C445.197 232.321 450.69 214.668 450.69 201.459C450.691 185.919 442.338 173.867 427.642 173.867ZM426.17 224.292C420.248 224.292 411.049 220.378 411.049 205.684C411.049 196.699 412.531 182.216 425.953 182.216C440.333 182.216 441.074 195.857 441.074 202.937C441.072 215.09 436.312 224.292 426.17 224.292Z" fill="white"/>
<path d="M0 152.739H181.402L251.965 0.0739746H70.561L0 152.739Z" fill="white"/>
<path d="M301.692 37.215C289.102 37.423 278.377 42.583 270.537 53.927H270.12V0.071991H251.963V148.22H269.094V134.808H269.504C273.218 140.79 280.853 151.311 299.213 151.311C335.942 151.311 346.67 116.858 346.67 91.07C346.668 60.742 330.372 37.215 301.692 37.215ZM298.8 135.635C287.251 135.635 269.299 127.996 269.299 99.322C269.299 81.783 272.182 53.517 298.389 53.517C326.449 53.517 327.893 80.136 327.893 93.959C327.893 117.677 318.608 135.635 298.8 135.635Z" fill="white"/>
<path d="M407.408 53.517C422.676 53.517 430.732 62.181 432.997 76.623H450.531C449.088 57.852 438.36 37.213 410.091 37.213C374.399 37.213 358.311 63.832 358.311 97.253C358.311 128.413 376.26 151.311 406.587 151.311C438.154 151.311 448.682 127.173 450.531 110.049H432.997C429.899 126.552 419.382 135.635 407.212 135.635C382.248 135.635 377.704 112.73 377.704 94.162C377.706 74.97 384.928 53.517 407.408 53.517Z" fill="white"/>
</svg>
