<svg width="512" height="300" viewBox="0 0 512 300" fill="#ffffff" xmlns="http://www.w3.org/2000/svg">
<path d="M424.853 171.931C416.576 161.477 418.944 156.827 424.853 147.483C424.96 147.376 493.291 52.9546 500.331 20.9333L500.373 20.912C503.872 9.24262 500.373 0.666626 483.456 0.666626H427.477C413.227 0.666626 406.656 8.02662 403.136 16.2613C403.136 16.2613 374.635 84.4853 334.315 128.709C321.301 141.488 315.285 145.584 308.181 145.584C304.683 145.584 299.243 141.488 299.243 129.819V20.912C299.243 6.91729 295.253 0.666626 283.456 0.666626H195.435C186.496 0.666626 181.184 7.19463 181.184 13.2746C181.184 26.544 201.344 29.5946 203.435 66.928V147.931C203.435 165.68 200.213 168.944 193.067 168.944C174.037 168.944 127.851 100.443 100.48 22.0426C94.9547 6.83196 89.5573 0.687958 75.2 0.687958H19.2C3.22133 0.687958 0 8.04796 0 16.2826C0 30.832 19.0293 103.173 88.4907 198.747C134.784 263.984 199.979 299.333 259.285 299.333C294.933 299.333 299.285 291.483 299.285 277.979C299.285 215.643 296.064 209.755 313.92 209.755C322.197 209.755 336.448 213.851 369.728 245.317C407.765 282.629 414.016 299.333 435.307 299.333H491.285C507.243 299.333 515.328 291.483 510.677 275.995C500.032 243.419 428.096 176.411 424.853 171.931V171.931Z" fill="#ffffff"/>
</svg>
