<svg width="641" height="448" viewBox="0 0 641 448" fill="#ffffff" xmlns="http://www.w3.org/2000/svg">
<path d="M627.18 70.1914C619.812 42.8002 598.216 21.208 570.829 13.8324C520.796 0.1427 320.659 0.1427 320.659 0.1427C320.659 0.1427 120.531 0.1427 70.4975 13.3134C43.637 20.6812 21.5141 42.8041 14.1463 70.1914C0.979492 120.221 0.979492 223.975 0.979492 223.975C0.979492 223.975 0.979492 328.252 14.1463 377.758C21.5219 405.145 43.1102 426.737 70.5014 434.113C121.057 447.807 320.667 447.807 320.667 447.807C320.667 447.807 520.796 447.807 570.829 434.636C598.22 427.264 619.812 405.672 627.188 378.285C640.351 328.252 640.351 224.501 640.351 224.501C640.351 224.501 640.877 120.221 627.18 70.1914V70.1914ZM256.94 319.826V128.123L423.363 223.975L256.94 319.826Z" fill="#ffffff"/>
</svg>
